HIERARCHY
ROOT Hips
{
	OFFSET	0.00	0.00	0.00
	CHANNELS 6 Xposition Yposition Zposition Zrotation Xrotation Yrotation
	JOINT LeftUpLeg
	{
		OFFSET	 0.126116	-0.014019	-0.065224
		CHANNELS 3 Zrotation Xrotation Yrotation
		JOINT LeftLeg
		{
			OFFSET	 0.000000	 0.000000	 0.569914
			CHANNELS 3 Zrotation Xrotation Yrotation
			JOINT LeftFoot
			{
				OFFSET	 0.000000	 0.000000	 0.544423
				CHANNELS 3 Zrotation Xrotation Yrotation
				JOINT LeftToeBase
				{
					OFFSET	 0.000000	 0.000000	 0.207117
					CHANNELS 3 Zrotation Xrotation Yrotation
					End Site
					{
						OFFSET	 0.000000	 0.000000	 0.207117
					}
				}
			}
		}
	}
	JOINT RightUpLeg
	{
		OFFSET	-0.124023	-0.008373	-0.065224
		CHANNELS 3 Zrotation Xrotation Yrotation
		JOINT RightLeg
		{
			OFFSET	 0.000000	 0.000000	 0.570047
			CHANNELS 3 Zrotation Xrotation Yrotation
			JOINT RightFoot
			{
				OFFSET	 0.000000	 0.000000	 0.544354
				CHANNELS 3 Zrotation Xrotation Yrotation
				JOINT RightToeBase
				{
					OFFSET	 0.000000	 0.000000	 0.207540
					CHANNELS 3 Zrotation Xrotation Yrotation
					End Site
					{
						OFFSET	 0.000000	 0.000000	 0.207540
					}
				}
			}
		}
	}
	JOINT Spine
	{
		OFFSET	 0.000184	-0.007763	 0.117403
		CHANNELS 3 Zrotation Xrotation Yrotation
		JOINT Spine1
		{
			OFFSET	 0.000000	 0.000000	 0.137269
			CHANNELS 3 Zrotation Xrotation Yrotation
			JOINT Spine2
			{
				OFFSET	 0.000000	 0.000000	 0.156879
				CHANNELS 3 Zrotation Xrotation Yrotation
				JOINT LeftShoulder
				{
					OFFSET	 0.080501	-0.002496	 0.160144
					CHANNELS 3 Zrotation Xrotation Yrotation
					JOINT LeftArm
					{
						OFFSET	 0.000000	 0.000000	 0.164363
						CHANNELS 3 Zrotation Xrotation Yrotation
						JOINT LeftForeArm
						{
							OFFSET	 0.000000	 0.000000	 0.364576
							CHANNELS 3 Zrotation Xrotation Yrotation
							JOINT LeftHand
							{
								OFFSET	 0.000000	 0.000000	 0.360812
								CHANNELS 3 Zrotation Xrotation Yrotation
								JOINT LeftHandIndex1
								{
									OFFSET	 0.000000	 0.000000	 0.086006
									CHANNELS 3 Zrotation Xrotation Yrotation
									JOINT LeftHandIndex2
									{
										OFFSET	 0.000000	 0.000000	 0.047236
										CHANNELS 3 Zrotation Xrotation Yrotation
										JOINT LeftHandIndex3
										{
											OFFSET	-0.004284	-0.000551	 0.038166
											CHANNELS 3 Zrotation Xrotation Yrotation
											End Site
											{
												OFFSET	-0.004284	-0.000551	 0.038166
											}
										}
									}
								}
							}
						}
					}
				}
				JOINT Neck
				{
					OFFSET	 0.000000	 0.000000	 0.176489
					CHANNELS 3 Zrotation Xrotation Yrotation
					JOINT Head
					{
						OFFSET	 0.000000	-0.001747	 0.077940
						CHANNELS 3 Zrotation Xrotation Yrotation
						End Site
						{
							OFFSET	 0.000000	-0.001747	 0.077940
						}
					}
				}
				JOINT RightShoulder
				{
					OFFSET	-0.080363	 0.000306	 0.159706
					CHANNELS 3 Zrotation Xrotation Yrotation
					JOINT RightArm
					{
						OFFSET	 0.000000	 0.000000	 0.164196
						CHANNELS 3 Zrotation Xrotation Yrotation
						JOINT RightForeArm
						{
							OFFSET	 0.000000	 0.000000	 0.365611
							CHANNELS 3 Zrotation Xrotation Yrotation
							JOINT RightHand
							{
								OFFSET	 0.000000	 0.000000	 0.360648
								CHANNELS 3 Zrotation Xrotation Yrotation
								JOINT RightHandIndex1
								{
									OFFSET	 0.000000	 0.000000	 0.069977
									CHANNELS 3 Zrotation Xrotation Yrotation
									JOINT RightHandIndex2
									{
										OFFSET	 0.000000	 0.000000	 0.052305
										CHANNELS 3 Zrotation Xrotation Yrotation
										JOINT RightHandIndex3
										{
											OFFSET	 0.009002	-0.000782	 0.042196
											CHANNELS 3 Zrotation Xrotation Yrotation
											End Site
											{
												OFFSET	 0.009002	-0.000782	 0.042196
											}
										}
									}
								}
							}
						}
					}
				}
			}
		}
	}
}
MOTION
Frames:    8
Frame Time: 0.03333334
 6.010197	-0.262444	 0.706055	 174.214500	 3.993199	-0.783712	 9.868217	 17.154800	-176.313900	-6.078053	-11.623930	 1.539986	-19.332460	 89.234340	 22.809160	-2.297082	 40.087370	-0.277966	 4.090796	-45.838610	 179.543700	-0.822567	-43.483240	 3.159397	-177.276200	 83.499860	-178.621000	 2.404690	 21.513900	-0.142887	 5.583520	 3.060237	 2.597619	 10.112040	-4.358857	 1.912369	 12.714190	-8.378519	 1.079498	-91.776180	 78.527400	 180.000000	 41.481850	 62.056330	-56.705580	-6.738372	-4.582937	-27.828350	 2.256463	-26.632600	-6.001040	-3.812334	 37.924440	-2.927599	-2.450526	 36.184240	 0.754587	-1.378229	 35.397820	-2.634230	-0.156568	 4.739404	-2.344636	 3.680892	-23.363630	-0.569184	 89.782090	 78.203830	-180.000000	-31.345410	 72.901980	 35.413800	 3.910048	-6.576049	 20.210850	-9.767941	-27.550440	 10.758710	 6.437017	 35.671460	-0.771858	 2.830251	 35.756010	-7.813440	-2.350882	 35.473990	 5.254307
 6.012942	-0.226028	 0.701050	 175.087600	 4.142072	-1.138401	 9.303216	 18.617090	-176.333000	-5.599213	-11.624670	 1.534778	-7.508098	 88.880230	 10.954050	-2.268772	 42.377720	-0.341316	 4.634455	-45.623470	-179.520500	-0.060802	-42.161670	 3.775973	-176.078200	 84.884040	-179.011800	 2.384152	 28.503400	 0.002475	 5.391055	 2.775735	 2.592745	 9.890830	-4.694677	 1.830483	 12.589040	-8.617110	 1.011548	-91.776180	 78.527400	-180.000000	 42.863000	 62.395580	-58.164100	-6.319861	-4.584259	-26.167970	 2.699452	-26.695010	-5.999628	-3.812334	 37.924440	-2.927599	-2.450526	 36.184240	 0.754587	-1.378229	 35.397820	-2.634230	-0.312762	 5.097080	-2.301779	 3.569758	-23.939990	-0.546410	 89.782120	 78.203870	 180.000000	-30.159410	 73.285150	 33.516570	 3.836286	-6.453743	 19.481560	-9.991235	-27.604910	 10.757900	 6.437017	 35.671460	-0.771858	 2.830251	 35.756010	-7.813440	-2.350882	 35.473990	 5.254307
 6.017398	-0.183529	 0.699834	 175.816000	 4.336777	-1.353080	 8.849251	 20.281780	-176.685500	-4.980809	-11.622530	 1.551343	 0.649901	 87.957230	 2.895818	-2.229434	 45.074460	-0.421134	 5.110333	-45.020800	-178.818300	 0.542095	-42.357440	 4.419321	-175.569600	 86.439090	-178.947700	 2.376330	 30.110380	 0.037692	 5.177011	 2.375468	 2.439424	 9.661179	-5.053277	 1.701363	 12.465560	-8.802827	 0.940313	-91.776180	 78.527400	-180.000000	 44.185350	 63.234490	-59.273400	-6.186190	-4.546100	-24.216710	 3.201284	-26.810220	-5.998356	-3.812334	 37.924440	-2.927599	-2.450526	 36.184240	 0.754587	-1.378229	 35.397820	-2.634230	-0.478560	 5.180489	-2.264134	 3.441844	-24.054840	-0.466800	 89.782090	 78.203830	-180.000000	-28.948160	 73.800730	 31.776830	 3.908313	-6.359674	 18.825500	-10.245090	-27.709710	 10.757530	 6.437017	 35.671460	-0.771858	 2.830251	 35.756010	-7.813440	-2.350882	 35.473990	 5.254307
 6.023083	-0.136735	 0.698221	 176.435000	 4.516399	-1.487572	 8.518204	 22.031150	-177.310000	-4.241223	-11.617400	 1.589550	 4.064548	 85.956690	-0.253229	-2.167109	 48.562270	-0.534660	 5.284746	-44.028790	-178.461600	 2.139779	-43.649490	 5.778536	-174.478400	 88.634560	-179.009300	 2.380878	 29.206920	 0.017797	 4.924306	 1.900509	 2.123836	 9.437899	-5.468139	 1.579974	 12.406880	-9.012584	 0.871477	-91.776180	 78.527400	-180.000000	 45.107720	 64.577670	-59.504290	-6.372891	-4.475873	-22.230610	 3.722136	-26.978990	-5.996151	-3.812334	 37.924440	-2.927599	-2.450526	 36.184240	 0.754587	-1.378229	 35.397820	-2.634230	-0.642402	 4.970551	-2.173385	 3.318061	-23.797750	-0.305260	 89.782120	 78.203870	 180.000000	-27.548660	 74.339650	 29.836890	 4.058831	-6.281279	 18.279960	-10.458400	-27.858280	 10.761770	 6.437017	 35.671460	-0.771858	 2.830251	 35.756010	-7.813440	-2.350882	 35.473990	 5.254307
 6.030178	-0.082861	 0.699764	 176.826000	 4.435196	-1.378341	 8.493469	 23.917410	-178.347400	-3.414374	-11.606680	 1.666914	 5.064919	 82.042360	-0.667937	-2.086509	 52.140810	-0.666592	 4.402204	-42.754010	-179.065300	 5.709703	-45.499410	 8.186000	 7.607905	 87.980260	 0.594394	 2.370447	 31.175090	 0.061483	 4.746002	 1.348255	 1.408735	 9.337758	-5.916366	 1.432740	 12.383440	-9.303118	 0.916778	-91.776180	 78.527400	-180.000000	 45.284240	 66.533200	-58.382480	-6.979934	-4.376400	-20.291640	 4.241548	-27.212670	-5.994497	-3.812334	 37.924440	-2.927599	-2.450526	 36.184240	 0.754587	-1.378229	 35.397820	-2.634230	-0.830658	 4.807780	-2.028033	 3.173112	-23.479100	-0.047448	 89.782140	 78.203830	 180.000000	-25.705740	 74.859990	 27.304970	 4.294151	-6.198841	 17.829230	-10.574940	-28.062030	 10.775540	 6.437017	 35.671460	-0.771858	 2.830251	 35.756010	-7.813440	-2.350882	 35.473990	 5.254307
 6.039051	-0.022405	 0.704088	 176.964400	 4.328275	-1.325971	 8.766106	 25.881520	-179.306400	-3.142092	-11.601690	 1.701551	 4.556170	 75.093540	 0.491435	-2.061191	 53.109430	-0.705603	 3.631089	-41.375740	-179.836900	 6.416024	-47.363120	 8.639838	 4.862526	 86.135280	 3.158408	 2.373742	 30.590960	 0.048387	 4.898610	 0.469478	 0.954308	 9.457491	-6.268299	 1.263677	 12.147040	-9.451119	 1.123095	-91.776180	 78.527400	 180.000000	 44.207520	 68.970180	-55.509200	-8.296249	-4.197969	-18.732770	 4.433917	-27.511790	-5.998783	-3.812334	 37.924440	-2.927599	-2.450526	 36.184240	 0.754587	-1.378229	 35.397820	-2.634230	-0.965869	 4.734440	-1.890730	 3.084144	-23.196950	 0.242602	 89.782120	 78.203870	 180.000000	-24.426540	 75.276470	 25.541330	 4.465609	-6.142124	 17.501010	-10.648500	-28.334340	 10.797950	 6.437017	 35.671460	-0.771858	 2.830251	 35.756010	-7.813440	-2.350882	 35.473990	 5.254307
 6.046264	 0.023684	 0.708860	 177.059700	 4.266080	-1.397283	 9.051161	 27.138250	-179.920400	-3.530009	-11.611430	 1.632441	 4.098201	 68.212250	 1.101804	-2.075071	 52.586300	-0.684331	 3.431238	-39.778720	 179.764100	 5.988854	-48.395000	 8.409285	 4.983580	 85.598110	 2.499762	 2.381228	 29.135180	 0.016224	 5.068812	-0.263279	 0.911395	 9.549173	-6.490700	 1.205403	 11.953950	-9.445750	 1.249641	-91.776180	 78.527400	 180.000000	 42.538310	 70.591310	-52.079840	-9.383487	-4.033092	-18.101180	 4.220791	-27.757290	-6.009496	-3.812334	 37.924440	-2.927599	-2.450526	 36.184240	 0.754587	-1.378229	 35.397820	-2.634230	-0.969095	 4.684923	-1.868066	 3.036107	-22.754480	 0.350776	 89.782090	 78.203830	-180.000000	-24.140940	 75.449360	 25.074570	 4.465988	-6.128875	 17.364260	-10.687350	-28.569340	 10.817310	 6.437017	 35.671460	-0.771858	 2.830251	 35.756010	-7.813440	-2.350882	 35.473990	 5.254307
 6.056298	 0.081925	 0.716627	 177.339900	 3.851873	-1.436074	 8.666051	 27.672640	 179.049500	-4.166140	-13.366950	 1.333523	 3.012335	 58.388260	 1.162106	-2.087506	 52.101600	-0.665039	 2.904965	-36.680050	 179.148600	 5.750796	-49.060920	 8.065531	 5.029111	 86.179720	 1.995584	 2.393395	 26.152970	-0.047673	 4.993174	-0.497785	 0.787652	 9.434108	-6.758440	 1.164215	 11.967840	-9.337852	 1.203637	-91.776180	 78.527400	 180.000000	 39.319840	 71.889340	-46.019960	-10.303280	-3.848731	-18.037290	 3.635717	-28.096160	-6.031481	-3.812334	 37.924440	-2.927599	-2.450526	 36.184240	 0.754587	-1.378229	 35.397820	-2.634230	-0.970271	 4.624996	-1.839006	 2.900769	-21.664490	 0.329266	 89.782120	 78.203870	 180.000000	-24.180950	 75.438900	 24.868920	 4.379777	-6.158838	 17.482840	-10.594870	-28.899310	 10.853200	 6.437017	 35.671460	-0.771858	 2.830251	 35.756010	-7.813440	-2.350882	 35.473990	 5.254307
